# xmcd CD database file
#
# Track frame offsets:
#	150
#	22425
#	45898
#	72730
#	94518
#	127836
#	164175
#	189600
#	217048
#	245953
#	269088
#	284952
#	305967
#	325511
#
# Disc length: 4725 seconds
#
# Revision: 0
# Processed by: cddbd v1.5PL3 Copyright (c) Steve Scherf et al.
# Submitted via: CDex 1.50
#
DISCID=ed12730e
DTITLE=Various Artist - Romantic Moonlight
DYEAR=2001
DGENRE=Blues
TTITLE0=Gary Moore - Midnight Blues
TTITLE1=Tony Joe White - Good In Blues
TTITLE2=Joe Cocker - St. James Infirmary 'Blues'
TTITLE3=Grand Funk Raiload - It's A Man World
TTITLE4=Led Zepepelin - Since I've Been Loving You
TTITLE5=Eric Clapton - Double Trouble
TTITLE6=The Jeff Healey Band - Blue Jeans Blues
TTITLE7=Joe Louise Walker - Fix Our Love
TTITLE8=Gimmie Vaughan - Dengue Woman Blues
TTITLE9=Jimmi Rogers with Lowell Fulson - Every Day I Have The Blues
TTITLE10=Jonny Lang - Cherry Red Wine
TTITLE11=B.B. King with Eric Clapton - Ten Long Years
TTITLE12=John Fogerty -  A  Hundred And Ten In The Shade
TTITLE13=Diane Schuur - I'm Not Ashamed To Sing The Blues
EXTD=YEAR: 2001
EXTT0=
EXTT1=
EXTT2=
EXTT3=
EXTT4=
EXTT5=
EXTT6=
EXTT7=
EXTT8=
EXTT9=
EXTT10=
EXTT11=
EXTT12=
EXTT13=
PLAYORDER=
